# xmcd
#
# Track frame offsets: 
#        150
#        23406
#        40198
#        54584
#        87330
#        100499
#        114976
#        142407
#        158988
#        177416
#        201657
#        216184
#        243125
#
# Disc length: 3598 seconds
#
# Revision: 1
# Processed by: cddbd v1.5.2PL0 Copyright (c) Steve Scherf et al.
# Submitted via: ExactAudioCopy v0.99pb5
#
DISCID=ba0e0c0d
DTITLE=The Mannish Boys - Double Dynamite  disc 1 [Atomic Blues]
DYEAR=2012
DGENRE=Blues
TTITLE0=Death Letter
TTITLE1=Mean Old World
TTITLE2=Bricks In My Pillow
TTITLE3=She's 19 Years Old-Streamline Woman
TTITLE4=Never Leave Me At Home
TTITLE5=Elevate Me Mama
TTITLE6=Please Forgive Me
TTITLE7=Everybody Needs Somebody
TTITLE8=Bad Detective
TTITLE9=You Dogged Me
TTITLE10=Bloody Tears
TTITLE11=The Hard Way
TTITLE12=Mannish Boy
EXTD=
EXTT0=
EXTT1=
EXTT2=
EXTT3=
EXTT4=
EXTT5=
EXTT6=
EXTT7=
EXTT8=
EXTT9=
EXTT10=
EXTT11=
EXTT12=
PLAYORDER=
